<svg width="40" height="40" viewBox="0 0 40 40" fill="none" xmlns="http://www.w3.org/2000/svg">
<path fill-rule="evenodd" clip-rule="evenodd" d="M5.55078 7.4998C5.55078 7.11321 5.86418 6.7998 6.25078 6.7998H11.2107C11.5447 6.7998 11.8322 7.03583 11.8973 7.36348L13.0263 13.0497L33.7508 13.0496C33.9592 13.0496 34.1568 13.1425 34.2898 13.303C34.4228 13.4635 34.4773 13.6749 34.4386 13.8797L32.4546 24.367L32.4536 24.3722C32.3087 25.1075 31.9117 25.7691 31.3306 26.2407C30.7512 26.7109 30.0258 26.962 29.2806 26.9493L17.0202 26.9493C16.2749 26.9621 15.5495 26.711 14.9701 26.2408C14.389 25.7693 13.992 25.1077 13.8471 24.3725L13.847 24.3722L11.7725 13.9239C11.7663 13.8995 11.7613 13.8745 11.7577 13.8492L10.636 8.1998H6.25078C5.86418 8.1998 5.55078 7.8864 5.55078 7.4998ZM13.3042 14.4496L15.2204 24.1006L15.2206 24.1016C15.3025 24.5172 15.5266 24.8894 15.8522 25.1537C16.1777 25.4178 16.5841 25.5575 17.0002 25.5495L17.0138 25.5492V25.5493L29.2869 25.5493H29.3004L29.3004 25.5494C29.7165 25.5575 30.1229 25.4178 30.4484 25.1536C30.7734 24.8899 30.9973 24.5186 31.0796 24.1039L31.08 24.1015L32.9059 14.4496L13.3042 14.4496ZM24.0008 22.4998C24.0008 22.7759 23.7769 22.9998 23.5008 22.9998C23.2246 22.9998 23.0008 22.7759 23.0008 22.4998C23.0008 22.2237 23.2246 21.9998 23.5008 21.9998C23.7769 21.9998 24.0008 22.2237 24.0008 22.4998ZM17.4244 33.7498C18.8051 33.7498 19.9244 32.6305 19.9244 31.2498C19.9244 29.8691 18.8051 28.7498 17.4244 28.7498C16.0437 28.7498 14.9244 29.8691 14.9244 31.2498C14.9244 32.6305 16.0437 33.7498 17.4244 33.7498ZM28.5899 33.7498C29.9706 33.7498 31.0899 32.6305 31.0899 31.2498C31.0899 29.8691 29.9706 28.7498 28.5899 28.7498C27.2092 28.7498 26.0899 29.8691 26.0899 31.2498C26.0899 32.6305 27.2092 33.7498 28.5899 33.7498Z" fill="black"/>
</svg>
