<svg width="28" height="28" viewBox="0 0 28 28" fill="none" xmlns="http://www.w3.org/2000/svg">
<path fill-rule="evenodd" clip-rule="evenodd" d="M12.0916 4.375C7.82984 4.375 4.375 7.90334 4.375 12.2558C4.375 16.6082 7.82984 20.1366 12.0916 20.1366C13.9417 20.1366 15.6397 19.4716 16.969 18.363L22.2766 23.4056C22.6009 23.7137 23.1084 23.695 23.4102 23.3638C23.7119 23.0326 23.6936 22.5142 23.3692 22.2061L18.1006 17.2005C19.1687 15.8483 19.8082 14.1283 19.8082 12.2558C19.8082 7.90335 16.3534 4.375 12.0916 4.375ZM5.97917 12.2558C5.97917 8.80815 8.71579 6.0133 12.0916 6.0133C15.4674 6.0133 18.204 8.80815 18.204 12.2558C18.204 15.7034 15.4674 18.4983 12.0916 18.4983C8.71579 18.4983 5.97917 15.7034 5.97917 12.2558Z" fill="black"/>
</svg>
