<svg width="32" height="32" viewBox="0 0 32 32" fill="none" xmlns="http://www.w3.org/2000/svg">
<path d="M27.9993 21.9686V25.5816C28.0006 25.917 27.9318 26.249 27.7971 26.5563C27.6625 26.8636 27.465 27.1395 27.2174 27.3662C26.9698 27.593 26.6774 27.7656 26.359 27.8731C26.0407 27.9805 25.7033 28.0204 25.3686 27.9902C21.6554 27.5875 18.0885 26.3212 14.9547 24.293C12.0391 22.4439 9.56712 19.9769 7.7144 17.067C5.67503 13.9252 4.40589 10.3481 4.00979 6.62554C3.97964 6.29251 4.0193 5.95685 4.12624 5.63995C4.23319 5.32305 4.40508 5.03185 4.63097 4.78488C4.85686 4.53791 5.1318 4.34059 5.43829 4.20548C5.74478 4.07037 6.0761 4.00043 6.41115 4.00012H10.0313C10.6169 3.99436 11.1847 4.20133 11.6287 4.58245C12.0727 4.96356 12.3628 5.49281 12.4447 6.07155C12.5975 7.22778 12.8809 8.36305 13.2894 9.4557C13.4518 9.88675 13.4869 10.3552 13.3907 10.8056C13.2944 11.256 13.0708 11.6694 12.7464 11.9968L11.2139 13.5263C12.9317 16.5414 15.4331 19.0378 18.4542 20.7522L19.9867 19.2228C20.3148 18.899 20.729 18.6758 21.1803 18.5798C21.6315 18.4837 22.1009 18.5188 22.5328 18.6808C23.6277 19.0885 24.7652 19.3713 25.9237 19.5238C26.5099 19.6064 27.0452 19.901 27.4279 20.3518C27.8106 20.8026 28.0139 21.378 27.9993 21.9686Z" fill="black"/>
</svg>
