<svg width="159" height="44" viewBox="0 0 159 44" fill="none" xmlns="http://www.w3.org/2000/svg">
<path d="M55.2555 25.3444V31.3969H50.9551V13.5581H58.0734C59.4375 13.5581 60.6423 13.8113 61.6878 14.3177C62.7414 14.8159 63.5541 15.5306 64.1259 16.4618C64.7058 17.3848 64.9958 18.4343 64.9958 19.6105C64.9958 21.3503 64.3709 22.7429 63.1212 23.7884C61.8797 24.8258 60.1726 25.3444 57.9999 25.3444H55.2555ZM55.2555 22.0242H58.0734C58.9066 22.0242 59.5396 21.8159 59.9725 21.3993C60.4136 20.9827 60.6341 20.3946 60.6341 19.635C60.6341 18.8019 60.4095 18.1362 59.9602 17.638C59.511 17.1397 58.8984 16.8865 58.1225 16.8783H55.2555V22.0242Z" fill="black"/>
<path d="M73.8451 21.3013V21.3135L76.7978 13.5581H81.331L75.3276 27.709C74.6823 29.1384 73.9554 30.1472 73.1467 30.7353C72.3463 31.3152 71.407 31.6215 70.3288 31.6542H69.4589L68.7973 31.6297L68.7238 28.2971C68.8218 28.3298 69.1077 28.3461 69.5814 28.3461C70.2349 28.3461 70.725 28.2359 71.0517 28.0153C71.3866 27.7866 71.6561 27.3497 71.8603 26.7044L72.0686 26.1163L65.6241 13.5581H70.194L73.8451 21.3013Z" fill="black"/>
<path d="M96.5636 25.3567C96.5064 26.5982 96.1716 27.6968 95.559 28.6524C94.9464 29.5999 94.0846 30.335 92.9738 30.8578C91.8711 31.3805 90.6092 31.6419 89.188 31.6419C86.8438 31.6419 84.9978 30.8782 83.6501 29.3508C82.3024 27.8234 81.6285 25.6671 81.6285 22.8818V21.9996C81.6285 20.2517 81.9307 18.7243 82.5352 17.4174C83.1478 16.1024 84.0258 15.0896 85.1693 14.379C86.3128 13.6602 87.636 13.3008 89.1389 13.3008C91.3035 13.3008 93.0432 13.8725 94.3583 15.0161C95.6733 16.1514 96.4207 17.7196 96.6004 19.7208H92.3122C92.2795 18.6345 92.0059 17.8544 91.4913 17.3807C90.9767 16.9069 90.1926 16.6701 89.1389 16.6701C88.0689 16.6701 87.2848 17.0703 86.7866 17.8707C86.2883 18.6712 86.027 19.9495 86.0024 21.7056V22.9676C86.0024 24.8707 86.2393 26.2306 86.7131 27.0474C87.195 27.8642 88.0199 28.2726 89.188 28.2726C90.1763 28.2726 90.9318 28.0398 91.4546 27.5743C91.9773 27.1087 92.255 26.3695 92.2877 25.3567H96.5636Z" fill="black"/>
<path d="M111.857 16.8783H106.503V31.3969H102.203V16.8783H96.9468V13.5581H111.857V16.8783Z" fill="black"/>
<path d="M117.607 25.3444V31.3969H113.307V13.5581H120.425C121.789 13.5581 122.994 13.8113 124.039 14.3177C125.093 14.8159 125.906 15.5306 126.477 16.4618C127.057 17.3848 127.347 18.4343 127.347 19.6105C127.347 21.3503 126.722 22.7429 125.473 23.7884C124.231 24.8258 122.524 25.3444 120.351 25.3444H117.607ZM117.607 22.0242H120.425C121.258 22.0242 121.891 21.8159 122.324 21.3993C122.765 20.9827 122.986 20.3946 122.986 19.635C122.986 18.8019 122.761 18.1362 122.312 17.638C121.863 17.1397 121.25 16.8865 120.474 16.8783H117.607V22.0242Z" fill="black"/>
<path d="M137.226 28.0644H131.333L130.303 31.3969H125.709L132.252 13.5581H136.295L142.886 31.3969H138.267L137.226 28.0644ZM132.362 24.7441H136.197L134.273 18.5569L132.362 24.7441Z" fill="black"/>
<path d="M150.131 24.3398H148.097V31.3969H143.796V13.5581H148.097V20.4559H149.751L153.181 13.5581H158.388L153.488 21.7914L159.001 31.3969H153.916L150.131 24.3398Z" fill="black"/>
<path fill-rule="evenodd" clip-rule="evenodd" d="M43.2642 23.7764C44.2453 22.7953 44.2453 21.2047 43.2642 20.2236L23.7764 0.735796C22.7953 -0.245266 21.2047 -0.245265 20.2236 0.735797L0.735796 20.2236C-0.245266 21.2047 -0.245265 22.7953 0.735796 23.7764L20.2236 43.2642C21.2047 44.2453 22.7953 44.2453 23.7764 43.2642L43.2642 23.7764ZM34.8912 23.7764C35.8722 22.7953 35.8722 21.2047 34.8912 20.2236L23.7764 9.10881C22.7953 8.12775 21.2047 8.12775 20.2236 9.10881L9.10881 20.2236C8.12775 21.2047 8.12775 22.7953 9.10881 23.7764L20.2236 34.8912C21.2047 35.8722 22.7953 35.8722 23.7764 34.8912L34.8912 23.7764Z" fill="#FEC80B"/>
</svg>
